<?xml version="1.0" encoding="utf-8"?>
<!-- Generator: Adobe Illustrator 27.5.0, SVG Export Plug-In . SVG Version: 6.00 Build 0)  -->
<svg version="1.1" xmlns="http://www.w3.org/2000/svg" xmlns:xlink="http://www.w3.org/1999/xlink" x="0px" y="0px"
	 viewBox="0 0 750 500" style="enable-background:new 0 0 750 500;" xml:space="preserve">
<g id="BACKGROUND">
	<rect style="fill:#526041;" width="750" height="500"/>
</g>
<g id="OBJECTS">
	<g>
		<defs>
			<rect id="SVGID_1_" width="750" height="500"/>
		</defs>
		<clipPath id="SVGID_00000165226634354323629300000008569599686212347532_">
			<use xlink:href="#SVGID_1_"  style="overflow:visible;"/>
		</clipPath>
		<path style="clip-path:url(#SVGID_00000165226634354323629300000008569599686212347532_);fill:#718458;" d="M111.592,260.81
			c4.666,57.556-7.376,117.96,13.811,171.677c11.393,28.886,32.205,55.209,33.364,86.239c1.109,29.681-16.825,57.555-40.383,75.644
			c-23.558,18.089-52.249,27.988-80.581,36.903c-34.392,10.821-48.766,4.68-60.96-29.486
			C-63.15,489.729-87.692,344.512-54.621,227.505C-20.809,107.882,102.647,150.469,111.592,260.81z"/>
		<path style="clip-path:url(#SVGID_00000165226634354323629300000008569599686212347532_);fill:#404A32;" d="M163.339,96.809
			c35.264,31.477,84.765,41.178,131.941,44.142c36.41,2.288,76.654-0.066,103.419-24.857c20.29-18.794,52.838-79.868,35.449-113.468
			c-12.252-23.673-42.1-31.13-68.534-34.554c-51.047-6.611-162.916-23.209-209.351-1.231
			C107.139-9.909,128.431,65.651,163.339,96.809z"/>
		<path style="clip-path:url(#SVGID_00000165226634354323629300000008569599686212347532_);fill:#404A32;" d="M467.53,452.932
			c24.157-40.36,73.698-66.651,119.485-55.883c13.472,3.168,28.309,9.109,40.339,2.267
			c29.126-16.563,100.729-246.897,129.191-180.45c17.063,39.835,17.52,73.394,31.65,233.043
			c7.616,86.044,4.194,151.931-93.074,190.618C563.547,694.859,365.377,623.607,467.53,452.932z"/>
		<path style="clip-path:url(#SVGID_00000165226634354323629300000008569599686212347532_);fill:#5C6C48;" d="M490.678,177.437
			c-6.794,30.755,16.885,55.604,41.94,19.893c36.224-51.63,69.382-112.92,128.954-133.632c4.542,22.464-11.061,43.432-24.698,61.851
			c-15.343,20.724-70.703,104.513-68.043,130.073c1.409,13.536,18.708,30.597,36.067,1.235
			c41.213-69.709,69.484-148.345,124.379-207.878c17.563-19.047,39.326-40.719,34.568-66.188
			c-5.082-27.203-37.762-39.395-65.436-39.391c-90.148,0.013-67.079,47.808-108.742,103.2
			C556.799,90.301,503.244,120.558,490.678,177.437z"/>
		<path style="opacity:0.5;clip-path:url(#SVGID_00000165226634354323629300000008569599686212347532_);fill:#75895C;" d="
			M142.06,36.85c-22.102-1.586-43.506-11.51-58.997-27.355c8.03,53.779,49.298,18.185,49.512,76.196
			C112.517,81.496,94.924,66.93,87.06,48.007c-1.825,50.406,35.417,27.76,24.182,86.712c-27.428-14.543-31.477-48.002-28.315-78.896
			c-7.104,21.437-24.884,39.037-46.392,45.923c0.044-18.349,11.643-36.169,28.402-43.638c10.473-4.667,21.395-6.37,15.747-33.855
			C70.247,55.856,42.041,50.527,33.149,60.375C40.037,3.378,74.097,29.169,74.16,4.767c0.009-3.478-2.807-7.743,0.665-10.838
			c1.872-1.669,5.786-2.782,7.181,0.158c0.523,1.103,0.408,2.409,0.827,3.556c2.688,7.361,14.327,2.395,19.401,2.287
			c8.506-0.182,24.29,6.802,32.502,18.056C135.842,19.504,143.243,36.931,142.06,36.85z"/>
		<path style="opacity:0.75;clip-path:url(#SVGID_00000165226634354323629300000008569599686212347532_);fill:#839866;" d="
			M256.461-2.911c16.042-11.173,36.131-17.716,52.932-7.702c11.639,6.938,22.131,25.432,23.214,37.007
			c1.675,17.906-14.057,26.928-23.803,20.024c-4.553-3.225-9.021-13.384-16.184-11.018c-4.171,1.378-8.29,10.085-16.968,12.627
			c-12.394,3.632-14.102-7.824-16.303-9.705c-2.626-2.245-6.791-0.672-9.258,1.747C229.263,60.497,218.211,23.73,256.461-2.911z"/>
		<path style="opacity:0.75;clip-path:url(#SVGID_00000165226634354323629300000008569599686212347532_);fill:#839866;" d="
			M722.057,516.297c1.359,19.345-11.88,21.042-17.375,11.915c-2.542-4.223-2.529-6.854-6.528-35.353
			c-1.568-11.174-6.738-9.115-17.162-9.202c-36.451-0.306-30.85-74.394-15.325-60.198c5.709,5.22,4.724,30.308,11.346,42.773
			c3.214,6.049,8.057,3.822,8.105-2.229c0.111-14.102-16.513-31.768-8.976-42.967c2.812-4.178,12.123-7.833,13.786,7.15
			c0.493,4.444,4.62,31.227,8.781,32.967c14.996,6.269-13.75-42.242-0.207-48.212c3.626-1.599,7.986,0.898,9.904,4.365
			c3.853,6.962,0.434,17.389,7.821,42.974c10.866-13.716-7.265-32.882-0.322-48.022c1.582-3.45,5.349-6.54,8.919-5.249
			c7.365,2.664,12.685,30.476,13.068,42.136c0.847,25.769-14.109,19.165-19.12,27.779
			C713.758,485.544,721.4,506.951,722.057,516.297z"/>
		<path style="opacity:0.75;clip-path:url(#SVGID_00000165226634354323629300000008569599686212347532_);fill:#839866;" d="
			M91.94,422.33c7.764,5.859,8.356,18.106,9.807,26.925c1.545,9.387,7.815,7.834,11.081,1.131
			c15.236-31.268,5.43-16.526,25.822-36.592c6.33-6.229,1.986-11.904-5.162-13.655c-4.4-1.078-9.407-1.188-12.68-4.319
			c-7.645-7.312,1.958-21.837-4.329-30.345c-16.323,16.402-9.715,33.203-21.095,38.775c-4.23,2.07-15.526,1.339-15.709,8.396
			C79.529,418.259,88.309,419.59,91.94,422.33z"/>
	</g>
	<path style="fill:#5C6C48;" d="M184.895,276.653c-4.668,111.579-165.303,66.376-103.345-26.409
		C123.39,187.59,186.858,229.721,184.895,276.653z"/>
	<path style="fill:#718458;" d="M535.162,373.596c44.111,22.474,36.398,93.017-15.004,99.227
		C417.369,485.243,454.941,332.728,535.162,373.596z"/>
	<path style="opacity:0.75;fill:#839866;" d="M535.77,384.882c-21.107,2.09,6.498-50.866,25.557-55.123
		c14.842-3.316,8.872,12.222,20.175,12.925c23.986,1.491,33.389-31.181,55.019-37.417c26.826-7.733,1.253,35.024-14.546,57.994
		c-17.059,24.801-32.649,18.433-36.856,11.159C566.689,342.55,557.293,382.751,535.77,384.882z"/>
	<g>
		<defs>
			<rect id="SVGID_00000067933702048228721150000005324016356571107473_" width="750" height="500"/>
		</defs>
		<clipPath id="SVGID_00000106841825028438206670000015071313938410146432_">
			<use xlink:href="#SVGID_00000067933702048228721150000005324016356571107473_"  style="overflow:visible;"/>
		</clipPath>
		<g style="clip-path:url(#SVGID_00000106841825028438206670000015071313938410146432_);">
			<path style="fill:none;stroke:#89A16D;stroke-width:1.5;stroke-linecap:round;stroke-linejoin:round;stroke-miterlimit:10;" d="
				M494.318,132.923c20.356-20.217,110.664-104.452,126.989-80.899C627.304,60.676,575.5,130.743,494.318,132.923z"/>
			<path style="fill:none;stroke:#89A16D;stroke-width:1.5;stroke-linecap:round;stroke-linejoin:round;stroke-miterlimit:10;" d="
				M615.727,85.079c-39.883,53.171-29.956,87.799,3.273,113.895c-8.527-43.033-10.21-44.306,11.828-72.761
				c31.604-40.806,23.45-72.833,13.602-73.462C636.292,52.231,620.413,78.832,615.727,85.079z"/>
			<path style="fill:none;stroke:#89A16D;stroke-width:1.5;stroke-linecap:round;stroke-linejoin:round;stroke-miterlimit:10;" d="
				M607.202,27.68c-52.315,18.884-65.446,54.147-102.37,43.332c15.158-6.615,25.423-20.721,37.759-31.736
				C588.253-1.495,668.739-3.361,657.163,18.361C653.213,25.773,640.774,15.562,607.202,27.68z"/>
			<path style="fill:none;stroke:#89A16D;stroke-width:1.5;stroke-linecap:round;stroke-linejoin:round;stroke-miterlimit:10;" d="
				M698.018,102.76c20.648,15.736,36.249,10.075,82.69-1.928c-13.418-15.357-64.497-6.757-83.233-44.76
				c-3.595-7.293-7.195-27.356-17.937-15.196C664.658,57.72,683.93,92.023,698.018,102.76z"/>
			<path style="fill:none;stroke:#89A16D;stroke-width:1.5;stroke-linecap:round;stroke-linejoin:round;stroke-miterlimit:10;" d="
				M715.372,49.458c6.522,23.717,30.542,21.98,37.476,36.092c6.82-33.377-5.781-37.585-17.198-48.763
				c-10.199-9.988-4.186-32.347-14.431-25.12C713.526,17.094,713.302,41.929,715.372,49.458z"/>
			<path style="fill:none;stroke:#89A16D;stroke-width:1.5;stroke-linecap:round;stroke-linejoin:round;stroke-miterlimit:10;" d="
				M515.073,121.65c35.381-13.618,62.661-42.194,95.129-61.768c46.719-28.165,104.369-37.687,143.537-76.688"/>
			<path style="fill:none;stroke:#89A16D;stroke-width:1.5;stroke-linecap:round;stroke-linejoin:round;stroke-miterlimit:10;" d="
				M606.152,164.115c-6.084-52.464,29.355-69.174,39.412-97.208c3.735-10.41,7.915-25.829,18.587-32.693"/>
			<path style="fill:none;stroke:#89A16D;stroke-width:1.5;stroke-linecap:round;stroke-linejoin:round;stroke-miterlimit:10;" d="
				M533.016,59.504C633.391-8.292,654.56,17.075,687.597,24.396"/>
			<path style="fill:none;stroke:#89A16D;stroke-width:1.5;stroke-linecap:round;stroke-linejoin:round;stroke-miterlimit:10;" d="
				M746.516,70.44c-5.921-15.865-38.415-36.698-14.345-69.586"/>
			<path style="fill:none;stroke:#89A16D;stroke-width:1.5;stroke-linecap:round;stroke-linejoin:round;stroke-miterlimit:10;" d="
				M761.879,99.679c-77.651,4.049-95.634-60.872-58.963-82.26"/>
		</g>
		<g style="clip-path:url(#SVGID_00000106841825028438206670000015071313938410146432_);">
			<path style="fill:none;stroke:#89A16D;stroke-width:1.5;stroke-linecap:round;stroke-linejoin:round;stroke-miterlimit:10;" d="
				M349.527,505.469c18.517,47.294-49.593,66.916-95.23-10.11c17.874-6.118,36.578,16.956,54.151,10.021
				c4.804-1.896-2.316-10.001-12.639-12.641c-26.889-6.877-60.403,5.749-57.066-56.327c14.537,14.466,37.428,16.29,54.606,27.492
				c21.806,14.22,18.937,3.83,12.465-0.606c-18.697-12.816-46.064-19.134-50.838-36.794c-4.755-17.589,14.088-31.508,16.073-48.552
				c13.323,10.968,6.305,37.004,39.225,56.267c4.837,2.831,5.858-0.2,5.158-1.663c-4.716-9.85-13.879-17.027-21.495-25.032
				c-33.371-35.075,7.62-47.463,16.841-61.492c-5.14,29.323,13.508,55.24,17.831,53.975c10.352-3.027-13.982-38.781-4.534-52.504
				c1.737-2.522,2.469-2.835,21.064-17.179c-3.012,8.84,2.254,18.709,9.698,24.348c17.379,13.166,38.294,8.311,35.311,25.952
				c-4.321,25.557-18.961,35.227-20.548,44.82c-0.246,1.484,1.462,2.552,2.699,1.695c16.059-11.122,20.118-33.768,26.45-49.764
				c32.538,64.614,14.522,52.271-19.874,72.247c-7.551,4.385-5.182,9.02-2.829,9.621c3.377,0.863,27.641-10.649,44.266-31.902
				c2.966,7.798,7.854,25.968,4.492,33.373c-3.507,7.723-12.176,8.879-39.81,15.441c-2.439,0.579-2.563,4.051-0.154,4.747
				c9.097,2.627,30.739-1.021,43.771-17.561c-0.695,12.737-6.676,38.268-18.414,42.475c-6.486,2.324-13.269-0.863-26.309-6.305
				c-2.183-0.911-4.449,1.16-3.713,3.408c3.226,9.846,21.255,14.791,34.453,4.75c-6.851,8.3-24.151,26.231-35.054,26.335
				c-11.609,0.111-23.864-16.826-24.813-25.879c-0.391-3.731,2.228-14.613-4.104-14.584
				C346.529,493.56,348.311,502.365,349.527,505.469z"/>
			<path style="fill:none;stroke:#89A16D;stroke-width:1.5;stroke-linecap:round;stroke-linejoin:round;stroke-miterlimit:10;" d="
				M310.615,530.91c-3.99,0.583-5.31-1.532-1.208-4.842C335.906,504.692,333.567,527.558,310.615,530.91z"/>
			<path style="fill:none;stroke:#89A16D;stroke-width:1.5;stroke-linecap:round;stroke-linejoin:round;stroke-miterlimit:10;" d="
				M356.283,474.307c-2.543-0.162-2.222-2.621-0.622-4.294C368.402,456.691,367.318,475.009,356.283,474.307z"/>
			<path style="fill:none;stroke:#89A16D;stroke-width:1.5;stroke-linecap:round;stroke-linejoin:round;stroke-miterlimit:10;" d="
				M328.032,445.974c3.881-0.638,11.472,5.008,8.03,9.383C332.164,460.312,319.735,447.337,328.032,445.974z"/>
			<path style="fill:none;stroke:#89A16D;stroke-width:1.5;stroke-linecap:round;stroke-linejoin:round;stroke-miterlimit:10;" d="
				M354.951,449.698c-10.762,3.358,1.118-15.313,8.183-11.536C368.186,440.865,360.309,448.027,354.951,449.698z"/>
			<path style="fill:none;stroke:#89A16D;stroke-width:1.5;stroke-linecap:round;stroke-linejoin:round;stroke-miterlimit:10;" d="
				M333.883,409.317c5.474,7.005,2.633,16.464-5.769,4.69C324.044,408.303,329.7,403.966,333.883,409.317z"/>
			<path style="fill:none;stroke:#89A16D;stroke-width:1.5;stroke-linecap:round;stroke-linejoin:round;stroke-miterlimit:10;" d="
				M346.282,386.29c-1.783-2.365,0.934-10.603,3.833-11.54C357.319,372.431,351.922,393.769,346.282,386.29z"/>
			<path style="fill:none;stroke:#89A16D;stroke-width:1.5;stroke-linecap:round;stroke-linejoin:round;stroke-miterlimit:10;" d="
				M357.77,410.054c-0.34,14.48,23.317-14.449,11.909-21.079C362.238,384.651,357.873,405.665,357.77,410.054z"/>
			<path style="fill:none;stroke:#89A16D;stroke-width:1.5;stroke-linecap:round;stroke-linejoin:round;stroke-miterlimit:10;" d="
				M340.459,348.019c-7.449,109.623,18.241,172.368,17.338,189.757c-0.333,6.41-2.628,12.535-4.898,18.539"/>
			<path style="fill:none;stroke:#89A16D;stroke-width:1.5;stroke-linecap:round;stroke-linejoin:round;stroke-miterlimit:10;" d="
				M297.083,372.565c0.343,10.093,12.158,42.729,26.269,55.53c6.582,5.972,14.457,9.28,18.813,17.027"/>
			<path style="fill:none;stroke:#89A16D;stroke-width:1.5;stroke-linecap:round;stroke-linejoin:round;stroke-miterlimit:10;" d="
				M361.127,366.375c15.197,10.956-15.903,30.582-20.894,56.356"/>
			<path style="fill:none;stroke:#89A16D;stroke-width:1.5;stroke-linecap:round;stroke-linejoin:round;stroke-miterlimit:10;" d="
				M269.898,406.869c10.357,49.574,53.989,46.49,76.484,68.893"/>
			<path style="fill:none;stroke:#89A16D;stroke-width:1.5;stroke-linecap:round;stroke-linejoin:round;stroke-miterlimit:10;" d="
				M403.581,405.266c-2.782,32.653-48.164,42.262-58.358,63.27"/>
			<path style="fill:none;stroke:#89A16D;stroke-width:1.5;stroke-linecap:round;stroke-linejoin:round;stroke-miterlimit:10;" d="
				M395.317,517.09c-5.589,4.551-14.25,3.172-20.042-1.118c-11.676-8.647-16.433-26.421-27.819-33.087
				c8.902-4.383,20.469-4.201,29.877-7.35c4.736-1.585,30.843-14.042,39.959-28.836"/>
			<path style="fill:none;stroke:#89A16D;stroke-width:1.5;stroke-linecap:round;stroke-linejoin:round;stroke-miterlimit:10;" d="
				M250.16,458.799c25.043,34.995,73.794,23.854,109.198,23.513c7.323-0.071,13.936,4.051,20.918,6.26
				c10.105,3.197,34.953,3.073,36.931-3.574"/>
			<path style="fill:none;stroke:#89A16D;stroke-width:1.5;stroke-linecap:round;stroke-linejoin:round;stroke-miterlimit:10;" d="
				M277.269,512.574c11.632,10.809,29.333,2.756,39.62-1.252c14.205-5.534,23.041-6.519,30.567-28.438"/>
			<path style="fill:none;stroke:#89A16D;stroke-width:1.5;stroke-linecap:round;stroke-linejoin:round;stroke-miterlimit:10;" d="
				M322.393,539.45c20.41-11.754,23.397-33.079,25.063-56.564"/>
		</g>
		
			<path style="opacity:0.5;clip-path:url(#SVGID_00000106841825028438206670000015071313938410146432_);fill:none;stroke:#89A16D;stroke-width:3;stroke-linecap:round;stroke-linejoin:round;stroke-miterlimit:10;" d="
			M490.683-32.188c21.471,56.668-8.141,127.589-63.534,152.163c-48.452,21.495-104.535,8.94-155.7-4.905
			C178.263,89.857,143.915,55.819,162.647-53.912"/>
		
			<path style="opacity:0.5;clip-path:url(#SVGID_00000106841825028438206670000015071313938410146432_);fill:none;stroke:#89A16D;stroke-width:3;stroke-linecap:round;stroke-linejoin:round;stroke-miterlimit:10;" d="
			M423.602-34.56c11.023,39.558-15.531,82.153-51.669,101.656C335.796,86.599,292.741,87.85,251.75,85.389
			c-37.197-2.233-57.075-11.303-66.079-51.036c-6.274-27.686-4.548-57.137,4.917-83.901"/>
		
			<path style="opacity:0.5;clip-path:url(#SVGID_00000106841825028438206670000015071313938410146432_);fill:none;stroke:#89A16D;stroke-width:3;stroke-linecap:round;stroke-linejoin:round;stroke-miterlimit:10;" d="
			M-37.656,189.016c29.158-15.816,70.043-3.851,86.073,25.189c17.282,31.308,11.709,101.975-6.459,137.322
			c-12.798,24.901-36.374,45.581-64.176,48.876c0.925-1.134,1.85-2.269,2.775-3.403"/>
		
			<path style="opacity:0.5;clip-path:url(#SVGID_00000106841825028438206670000015071313938410146432_);fill:none;stroke:#89A16D;stroke-width:3;stroke-linecap:round;stroke-linejoin:round;stroke-miterlimit:10;" d="
			M-9.344,226.369c28.994,6.981,51.21,39.314,31.544,81.943c-6.483,14.052-16.059,26.412-25.551,38.635
			c-2.334,3.006-6.447,6.29-9.411,3.903"/>
		
			<path style="opacity:0.5;clip-path:url(#SVGID_00000106841825028438206670000015071313938410146432_);fill:none;stroke:#89A16D;stroke-width:3;stroke-linecap:round;stroke-linejoin:round;stroke-miterlimit:10;" d="
			M234.344,610.873c-94.23-117.015-68.816-280.774-21.185-309.545c14.053-8.489,40.4-6.324,32.435,20.441
			c-8.455,28.413-30.975,50.487-42.685,77.721c-36.469,84.824,45.385,198.092,104.838,200.715"/>
		
			<path style="opacity:0.5;clip-path:url(#SVGID_00000106841825028438206670000015071313938410146432_);fill:none;stroke:#89A16D;stroke-width:3;stroke-linecap:round;stroke-linejoin:round;stroke-miterlimit:10;" d="
			M566.695,561.989c-31.993-28.429-3.955-111.259,63.021-140.521c11.801-5.156,24.794-8.828,33.938-17.895
			c12.092-11.989,14.511-30.26,19.128-46.65c14.372-51.022,57.602-92.838,109.074-105.505"/>
		
			<path style="opacity:0.5;clip-path:url(#SVGID_00000106841825028438206670000015071313938410146432_);fill:none;stroke:#89A16D;stroke-width:3;stroke-linecap:round;stroke-linejoin:round;stroke-miterlimit:10;" d="
			M635.262,283.078c-3.902-2.577-5.157-7.709-5.42-12.378c-1.545-27.37,18.328-53.845,33.778-74.681
			c10.147-13.683,27.644-47.622,38.916-23.906C713.014,194.159,662.202,300.866,635.262,283.078z"/>
		
			<path style="opacity:0.5;clip-path:url(#SVGID_00000106841825028438206670000015071313938410146432_);fill:none;stroke:#89A16D;stroke-width:3;stroke-linecap:round;stroke-linejoin:round;stroke-miterlimit:10;" d="
			M109.03,566.527c-18.265-92.612-40.338-143.501-134.938-155.98"/>
		
			<path style="opacity:0.5;clip-path:url(#SVGID_00000106841825028438206670000015071313938410146432_);fill:none;stroke:#89A16D;stroke-width:3;stroke-linecap:round;stroke-linejoin:round;stroke-miterlimit:10;" d="
			M55.12,541.928c2.425-3.644,3.169-8.164,3.231-12.541c0.506-35.964-43.873-69.773-74.555-88.073"/>
	</g>
</g>
</svg>
